<?xml version="1.0" encoding="utf-8"?>
<!-- Generator: Adobe Illustrator 24.2.1, SVG Export Plug-In . SVG Version: 6.00 Build 0)  -->
<svg version="1.1" id="Layer_1" xmlns="http://www.w3.org/2000/svg" xmlns:xlink="http://www.w3.org/1999/xlink" x="0px" y="0px"
	 viewBox="0 0 1600 960" style="enable-background:new 0 0 1600 960;" xml:space="preserve">
<style type="text/css">
	.st0{fill:#C8CACB;}
	.st1{fill:#5A2A82;}
	.st2{fill:#A986BF;}
	.st3{fill:#231F20;}
	.st4{fill:#FFFFFF;}
</style>
<path class="st0" d="M1133.3,188.6c0,0-87.2,0.8-147.6-5.2c-99-9.9-182.8-63.2-191.7-69v-0.5c0,0-0.1,0.1-0.4,0.3
	c-0.3-0.2-0.4-0.3-0.4-0.3v0.5c-8.9,5.8-92.8,59.1-191.7,69c-60.4,6-147.6,5.2-147.6,5.2s-5.5,294.6,64.5,427.3
	c92.1,174.3,261.9,228.8,274.8,232.8v0.2c0,0,0.1,0,0.4-0.1c0.3,0.1,0.4,0.1,0.4,0.1v-0.2c12.9-3.9,182.7-58.4,274.8-232.8
	C1138.8,483.3,1133.3,188.6,1133.3,188.6z"/>
<g>
	<g>
		<path class="st1" d="M486.1,359.7c21.6-14.5,47.7-23,75.6-23c36.8,0,70.3,14.8,94.8,38.6l-2.5-51.9l60.9-2.9l-0.9-1.1
			c-39.1-38.9-92.9-62.9-152.3-62.9c-49.2,0-94.6,16.5-131,44.3l-3.7,54.9L486.1,359.7z"/>
		<path class="st1" d="M452.4,553.5c-16.8-22.6-26.7-50.6-26.7-80.8c0-41.2,18.4-78.2,47.5-103.1l-57.5-3.8l3.7-55.6
			c-45.2,39.6-73.8,97.8-73.8,162.5c0,51,17.8,97.9,47.4,134.9l56.5,2.9L452.4,553.5z"/>
		<path class="st2" d="M929.2,376.7c24.6-24.7,58.7-40.1,96.3-40.1c31.2,0,60,10.6,83,28.4l52.1-5.1l-5.9-60.5
			c-36.1-27-80.8-43-129.2-43c-60.3,0-114.8,24.8-154.1,64.7l-0.7,0.8l59.4,0.9L929.2,376.7z"/>
		<path class="st2" d="M1119.7,374.7c25.8,24.8,41.8,59.5,41.8,98c0,32.8-11.7,63-31.2,86.5l2.7,53.8l59.3-3
			c30.8-37.4,49.3-85.2,49.3-137.3c0-65.4-29.2-124.2-75.3-163.8l6,60.7L1119.7,374.7z"/>
		<path class="st1" d="M651.5,574.7c-24,21.1-55.4,34-89.8,34c-39.1,0-74.4-16.6-99.2-43.1l-2.8,56.1l-57.1-2.9
			c39.5,43,96.3,70.1,159.2,70.1c55.1,0,105.4-20.7,143.6-54.8l0.4-59L651.5,574.7z"/>
		<path class="st2" d="M1120.2,570.2c-24.5,23.8-57.9,38.5-94.7,38.5c-33,0-63.3-11.8-86.8-31.4l-61.6,0.4l0.4,52.3
			c38.7,36.4,90.8,58.8,148,58.8c61.7,0,117.5-26,156.9-67.6l-59.5,3L1120.2,570.2z"/>
		<path class="st1" d="M872.9,502l-80-92.2l-0.1,0.2l-69.7-80.4l-58.6,2.8l2.6,54.2l0.7,0.8c0.5,0.6,0.9,1.2,1.4,1.8l70.3,82
			l-0.4,0.4l53.5,61.7l0.2-0.3l47.6,55.4l25.3,29.2c0.1,0.1,0.2,0.2,0.3,0.3l-0.4-52.1l61-0.4c-5.2-5.4-10-11.3-14.2-17.5L872.9,502
			z"/>
		<path class="st2" d="M793,534l0.3,0.3l53.8-61.7l-0.4-0.5l68.5-79.9c0.9-1.2,1.8-2.4,2.7-3.5l0.8-55.5l-56.3-0.9L661.8,563.8
			l54.2,0.4l-0.4,59.2l45.7-52.4L793,534z"/>
	</g>
	<g>
		<path class="st3" d="M525.5,500.9v-47.8h14.7c4.2,0,8,0.9,11.3,2.8c3.3,1.9,5.9,4.6,7.8,8.1c1.9,3.5,2.8,7.5,2.8,11.9v2.2
			c0,4.4-0.9,8.4-2.7,11.9c-1.8,3.5-4.4,6.1-7.7,8c-3.3,1.9-7.1,2.9-11.3,2.9H525.5z M535.3,461.1V493h4.8c3.9,0,6.8-1.3,8.8-3.8
			c2-2.5,3.1-6.1,3.1-10.8v-2.5c0-4.9-1-8.5-3-11c-2-2.5-5-3.8-8.8-3.8H535.3z"/>
		<path class="st3" d="M584.9,501.6c-5.2,0-9.5-1.6-12.7-4.8c-3.3-3.2-4.9-7.5-4.9-12.8v-0.9c0-3.6,0.7-6.8,2.1-9.6
			c1.4-2.8,3.3-5,5.9-6.5c2.5-1.5,5.4-2.3,8.7-2.3c4.9,0,8.7,1.5,11.5,4.6c2.8,3.1,4.2,7.4,4.2,13v3.9h-22.6
			c0.3,2.3,1.2,4.2,2.8,5.6c1.5,1.4,3.5,2.1,5.9,2.1c3.7,0,6.5-1.3,8.6-4l4.7,5.2c-1.4,2-3.3,3.6-5.8,4.7
			C590.5,501,587.8,501.6,584.9,501.6z M583.8,472.4c-1.9,0-3.4,0.6-4.6,1.9c-1.2,1.3-1.9,3.1-2.2,5.5h13.2V479
			c0-2.1-0.6-3.7-1.7-4.9C587.4,473,585.8,472.4,583.8,472.4z"/>
		<path class="st3" d="M617.8,489.4l6.6-23.9h9.9l-12,35.5h-9.1l-12-35.5h9.9L617.8,489.4z"/>
	</g>
	<g>
		<path class="st3" d="M994.9,478.1c0,4.7-0.8,8.8-2.5,12.4c-1.7,3.5-4,6.3-7.1,8.2c-3.1,1.9-6.6,2.9-10.7,2.9c-4,0-7.5-1-10.6-2.9
			c-3.1-1.9-5.5-4.6-7.2-8.2c-1.7-3.5-2.6-7.6-2.6-12.2V476c0-4.7,0.8-8.8,2.5-12.4c1.7-3.6,4.1-6.3,7.2-8.2
			c3.1-1.9,6.6-2.9,10.6-2.9c4,0,7.5,1,10.6,2.9c3.1,1.9,5.5,4.7,7.2,8.2c1.7,3.6,2.5,7.7,2.5,12.4V478.1z M984.9,476
			c0-5-0.9-8.8-2.7-11.4c-1.8-2.6-4.4-3.9-7.7-3.9c-3.3,0-5.9,1.3-7.7,3.9c-1.8,2.6-2.7,6.3-2.7,11.3v2.3c0,4.9,0.9,8.7,2.7,11.4
			c1.8,2.7,4.4,4,7.7,4c3.3,0,5.8-1.3,7.6-3.9c1.8-2.6,2.7-6.4,2.7-11.3V476z"/>
		<path class="st3" d="M1033.4,483.5c0,5.5-1.2,9.9-3.7,13.2c-2.5,3.3-5.8,4.9-10.1,4.9c-3.6,0-6.5-1.2-8.7-3.7v16.7h-9.5v-49.2h8.8
			l0.3,3.5c2.3-2.8,5.3-4.1,9-4.1c4.4,0,7.8,1.6,10.2,4.9c2.4,3.2,3.6,7.7,3.6,13.4V483.5z M1023.9,482.8c0-3.3-0.6-5.9-1.8-7.7
			c-1.2-1.8-2.9-2.7-5.1-2.7c-3,0-5,1.1-6.1,3.4v14.5c1.2,2.3,3.2,3.5,6.2,3.5C1021.7,493.9,1023.9,490.2,1023.9,482.8z"/>
		<path class="st3" d="M1058.5,491.1c0-1.2-0.6-2.1-1.7-2.7c-1.1-0.7-3-1.3-5.5-1.8c-8.5-1.8-12.7-5.4-12.7-10.8
			c0-3.2,1.3-5.8,3.9-7.9c2.6-2.1,6-3.2,10.3-3.2c4.5,0,8.1,1.1,10.8,3.2c2.7,2.1,4.1,4.9,4.1,8.3h-9.5c0-1.4-0.4-2.5-1.3-3.4
			c-0.9-0.9-2.2-1.3-4.1-1.3c-1.6,0-2.8,0.4-3.7,1.1c-0.9,0.7-1.3,1.6-1.3,2.8c0,1.1,0.5,1.9,1.5,2.5c1,0.6,2.7,1.2,5,1.7
			c2.4,0.5,4.4,1,6,1.6c5,1.8,7.5,5,7.5,9.6c0,3.2-1.4,5.9-4.2,7.9c-2.8,2-6.4,3-10.8,3c-3,0-5.6-0.5-7.9-1.6
			c-2.3-1.1-4.1-2.5-5.4-4.4c-1.3-1.8-2-3.8-2-6h9c0.1,1.7,0.7,3,1.9,3.9c1.2,0.9,2.7,1.3,4.7,1.3c1.8,0,3.2-0.3,4.1-1
			C1058.1,493.1,1058.5,492.2,1058.5,491.1z"/>
	</g>
	<g>
		<path class="st4" d="M715.4,382.4c-2.2,2-4.4,3-6.6,3.2c-2.2,0.2-4.1-0.6-5.6-2.3c-1.4-1.6-2-3.3-1.8-5.1l-6.8,6l-2.9-3.2
			l19.7-17.6l2.6,3l-1.3,1.4c2-0.1,3.7,0.7,5.1,2.3c1.6,1.7,2.1,3.7,1.7,5.8c-0.4,2.1-1.8,4.2-4.1,6.3L715.4,382.4z M712.9,379
			c1.4-1.3,2.3-2.6,2.6-3.9c0.3-1.3,0-2.5-0.9-3.5c-1.2-1.3-2.5-1.8-4.1-1.4l-6.3,5.6c-0.6,1.6-0.3,3,0.9,4.3c0.9,1,2,1.4,3.4,1.3
			C709.7,381.3,711.2,380.5,712.9,379z"/>
		<path class="st4" d="M713.9,394.8l-2.9-3.2l20.2-18.1l2.9,3.2L713.9,394.8z"/>
		<path class="st4" d="M724.6,406.8c0.1-0.4,0.5-0.9,1-1.6c-2-0.1-3.6-0.8-4.9-2.3c-1.3-1.4-1.9-3-1.9-4.6c0-1.6,0.6-3,1.8-4.1
			c1.5-1.4,3.2-1.8,5-1.4c1.8,0.4,3.7,1.7,5.5,3.8l1.8,2l0.9-0.8c0.7-0.7,1.1-1.4,1.2-2.2c0.1-0.8-0.3-1.6-1-2.5
			c-0.7-0.7-1.4-1.2-2.1-1.3c-0.8-0.1-1.5,0-2,0.5l-2.9-3.2c0.8-0.7,1.7-1.1,2.9-1.2c1.1-0.1,2.3,0.1,3.5,0.7
			c1.2,0.5,2.3,1.4,3.2,2.5c1.5,1.7,2.3,3.4,2.3,5.1c0,1.7-0.7,3.3-2.2,4.7l-6.4,5.7c-1.3,1.1-2.1,2.2-2.6,3.3l-0.2,0.2L724.6,406.8
			z M723.8,401.2c0.6,0.6,1.2,1.1,2.1,1.4c0.8,0.3,1.6,0.3,2.4,0.2l2.7-2.4l-1.5-1.7c-1.1-1.2-2.1-1.9-3-2.1c-0.9-0.2-1.8,0-2.6,0.7
			c-0.6,0.5-0.9,1.2-0.9,1.9C722.9,399.8,723.2,400.5,723.8,401.2z"/>
		<path class="st4" d="M747,403.1l-1.6,1.6c2.2-0.1,4.1,0.7,5.6,2.4c2.7,3,2.3,6-1.1,9.1l-9.4,8.4l-2.9-3.2l9.2-8.2
			c0.9-0.8,1.4-1.6,1.5-2.4c0.1-0.8-0.3-1.6-1.1-2.5c-1.2-1.3-2.6-1.7-4.3-1.3l-10.1,9.1l-2.9-3.2l14.3-12.7L747,403.1z"/>
	</g>
	<g>
		<path class="st3" d="M977.5,308.9c-0.7-2.9-0.6-5.3,0.3-7.4c0.9-2.1,2.5-3.4,4.7-3.9c2-0.5,3.7-0.2,5.3,0.9l-2.4-9.5l4.2-1
			l6.5,26.3l-3.8,0.9l-0.7-1.9c-0.9,1.8-2.3,3-4.4,3.5c-2.2,0.5-4.1,0.1-5.9-1.3C979.5,314.1,978.2,311.9,977.5,308.9z M981.7,308.3
			c0.5,1.9,1.2,3.3,2.2,4.1c1,0.9,2.1,1.2,3.5,0.8c1.7-0.4,2.8-1.5,3.2-3.2l-2-7.9c-1.1-1.3-2.6-1.7-4.3-1.3
			c-1.3,0.3-2.3,1.1-2.7,2.4C981.2,304.4,981.2,306.1,981.7,308.3z"/>
		<path class="st3" d="M1008.2,312.9c-2.7,0.3-5-0.2-6.9-1.7c-1.9-1.5-3-3.6-3.4-6.5l-0.1-0.5c-0.2-1.9-0.1-3.6,0.5-5.2
			c0.5-1.6,1.4-2.9,2.6-3.9c1.2-1,2.6-1.6,4.3-1.8c2.6-0.3,4.7,0.2,6.3,1.7c1.6,1.5,2.6,3.7,3,6.7l0.2,1.7l-12.4,1.6
			c0.3,1.5,1,2.7,2,3.5c1,0.8,2.2,1.1,3.6,0.9c2-0.2,3.4-1.2,4.5-3l2.6,1.9c-0.6,1.2-1.5,2.2-2.7,3
			C1011.1,312.3,1009.8,312.8,1008.2,312.9z M1005.6,296.8c-1.2,0.1-2.1,0.7-2.7,1.6c-0.6,0.9-0.9,2.1-0.9,3.6l8.1-1l0-0.3
			c-0.3-1.4-0.8-2.4-1.5-3.1C1007.8,296.9,1006.8,296.6,1005.6,296.8z"/>
		<path class="st3" d="M1035,302c0,3-0.6,5.3-2,7.1c-1.3,1.8-3.1,2.7-5.4,2.7c-2.1,0-3.8-0.7-5-2l0.1,9.1l-4.3,0l-0.2-26.5l4,0
			l0.2,1.9c1.2-1.5,3-2.3,5.1-2.3c2.3,0,4.2,0.8,5.5,2.6c1.3,1.7,2,4.1,2,7.2L1035,302z M1030.8,301.7c0-1.9-0.4-3.4-1.2-4.5
			c-0.8-1.1-1.9-1.7-3.3-1.7c-1.8,0-3,0.7-3.8,2.2l0.1,8.5c0.8,1.5,2.1,2.2,3.8,2.2c1.4,0,2.4-0.6,3.2-1.7
			C1030.4,305.6,1030.8,303.9,1030.8,301.7z"/>
		<path class="st3" d="M1042.7,312.1l-4.3-0.3l2.2-27l4.3,0.3L1042.7,312.1z"/>
		<path class="st3" d="M1047.7,302.6c0.3-1.8,1-3.4,1.9-4.8c1-1.4,2.2-2.3,3.7-2.9c1.5-0.6,3-0.7,4.8-0.4c2.5,0.4,4.5,1.6,5.8,3.5
			c1.3,1.9,1.8,4.2,1.5,6.9l-0.1,1c-0.3,1.9-1,3.5-1.9,4.8c-1,1.3-2.2,2.3-3.6,2.9c-1.5,0.6-3.1,0.7-4.8,0.4
			c-2.7-0.4-4.6-1.7-5.9-3.7c-1.3-2-1.7-4.5-1.2-7.5L1047.7,302.6z M1051.9,303.7c-0.3,1.9-0.2,3.5,0.4,4.8c0.6,1.2,1.6,2,3.1,2.2
			c1.4,0.2,2.6-0.1,3.6-1.1c1-1,1.7-2.5,2-4.7c0.3-1.9,0.2-3.5-0.5-4.7c-0.6-1.3-1.6-2-3.1-2.2c-1.4-0.2-2.6,0.1-3.6,1.1
			C1052.9,300,1052.2,301.5,1051.9,303.7z"/>
		<path class="st3" d="M1074.3,311.8l7.3-11.4l4.4,1.3l-13.3,19.1c-2,2.8-4.3,3.8-7,3c-0.6-0.2-1.2-0.5-1.9-0.9l0.9-3.2l0.8,0.3
			c1,0.3,1.9,0.3,2.5,0.1c0.6-0.2,1.2-0.7,1.8-1.6l1-1.4l-1.2-20.1l4.5,1.3L1074.3,311.8z"/>
		<path class="st3" d="M1194.6,427.7c1.8-0.4,3.6-0.4,5.2,0c1.6,0.4,3,1.2,4.1,2.3c1.1,1.1,1.8,2.5,2.2,4.2c0.6,2.5,0.2,4.7-1,6.7
			c-1.3,1.9-3.2,3.3-5.9,4l-1,0.2c-1.8,0.4-3.6,0.4-5.2,0.1c-1.6-0.4-3-1.1-4-2.3c-1.1-1.1-1.8-2.6-2.2-4.3
			c-0.6-2.6-0.2-4.9,1.2-6.9c1.4-2,3.5-3.3,6.5-4L1194.6,427.7z M1195.2,432c-1.9,0.4-3.3,1.2-4.2,2.2c-0.9,1-1.2,2.3-0.9,3.7
			c0.3,1.4,1.1,2.4,2.4,2.9c1.3,0.5,3,0.6,5.1,0.1c1.9-0.4,3.3-1.2,4.2-2.2c0.9-1.1,1.2-2.3,0.9-3.7c-0.3-1.4-1.1-2.3-2.4-2.9
			C1199.1,431.6,1197.3,431.5,1195.2,432z"/>
		<path class="st3" d="M1200.5,465.8c-2.9,0.3-5.4-0.1-7.2-1.3c-1.9-1.2-2.9-2.9-3.2-5.1c-0.2-2.1,0.3-3.8,1.5-5.2l-9,0.9l-0.4-4.3
			l26.3-2.7l0.4,3.9l-1.9,0.4c1.7,1.1,2.6,2.7,2.8,4.9c0.2,2.3-0.4,4.2-2,5.7c-1.6,1.5-3.9,2.4-7,2.7L1200.5,465.8z M1200.4,461.5
			c1.9-0.2,3.4-0.7,4.4-1.6c1-0.9,1.5-2,1.3-3.4c-0.2-1.7-1-2.9-2.5-3.5l-8.4,0.9c-1.4,0.9-2,2.3-1.8,4c0.1,1.4,0.8,2.4,2,3
			C1196.5,461.5,1198.2,461.7,1200.4,461.5z"/>
		<path class="st3" d="M1190.7,478.1c0-2.7,0.9-4.9,2.7-6.6c1.7-1.7,4-2.5,6.9-2.4l0.5,0c1.9,0,3.6,0.4,5.1,1.2
			c1.5,0.8,2.6,1.8,3.5,3.2c0.8,1.3,1.2,2.8,1.2,4.5c0,2.6-0.9,4.6-2.6,6c-1.7,1.4-4,2.1-7.1,2l-1.7,0l0.2-12.5
			c-1.6,0.1-2.8,0.6-3.8,1.5c-0.9,0.9-1.4,2.1-1.4,3.5c0,2,0.7,3.6,2.3,4.8l-2.2,2.3c-1.1-0.8-2-1.8-2.6-3.1
			C1191,481.1,1190.7,479.7,1190.7,478.1z M1207.1,477.8c0-1.2-0.4-2.1-1.2-2.9c-0.8-0.7-2-1.2-3.4-1.4l-0.1,8.2l0.3,0
			c1.4-0.1,2.5-0.4,3.3-1.1C1206.7,479.9,1207.1,479,1207.1,477.8z"/>
		<path class="st3" d="M1204.6,500.1c0.2-0.6,0.3-1.1,0.3-1.7c0.2-2-0.4-3.4-1.8-4.2l-13-1.4l0.5-4.3l19,2.1l-0.4,4.1l-2.1-0.1
			c1.5,1.2,2.2,2.7,2,4.6c-0.1,0.6-0.2,1.1-0.4,1.5L1204.6,500.1z"/>
		<path class="st3" d="M1187,511.2c0.4-0.1,1-0.2,1.8-0.1c-1.1-1.6-1.5-3.4-1.1-5.3c0.4-1.9,1.2-3.3,2.5-4.3c1.3-1,2.8-1.3,4.3-1
			c2,0.4,3.4,1.5,4.1,3.2c0.8,1.7,0.9,3.9,0.3,6.7l-0.5,2.6l1.2,0.3c1,0.2,1.8,0.1,2.5-0.3c0.7-0.4,1.2-1.2,1.4-2.3
			c0.2-1,0.1-1.8-0.2-2.5c-0.4-0.7-0.9-1.1-1.6-1.3l0.9-4.2c1,0.2,1.9,0.7,2.7,1.6c0.8,0.9,1.3,1.9,1.5,3.2c0.3,1.3,0.3,2.6,0,4.1
			c-0.4,2.2-1.4,3.8-2.7,4.9c-1.4,1.1-3.1,1.4-5.1,1.1l-8.4-1.7c-1.7-0.3-3.1-0.4-4.2-0.1l-0.3-0.1L1187,511.2z M1191,507.2
			c-0.2,0.8-0.1,1.7,0.1,2.5c0.3,0.8,0.7,1.5,1.3,2l3.5,0.7l0.5-2.3c0.3-1.6,0.3-2.8-0.1-3.7c-0.4-0.9-1.1-1.4-2.1-1.6
			c-0.8-0.2-1.5,0-2.1,0.4C1191.6,505.7,1191.2,506.3,1191,507.2z"/>
		<path class="st3" d="M1206.4,530.6l-4.4-1.3l-1,3.2l-3-0.9l1-3.2l-10.2-3.1c-0.7-0.2-1.2-0.2-1.6,0c-0.4,0.2-0.7,0.6-0.9,1.3
			c-0.1,0.5-0.2,1-0.3,1.5l-3.2-1c0-1,0.2-2,0.4-2.8c1-3.2,3.2-4.2,6.7-3.2l10.4,3.1l0.9-3l3,0.9l-0.9,3l4.4,1.3L1206.4,530.6z"/>
		<path class="st3" d="M1178.4,537.2c1-2.5,2.6-4.2,4.9-5.2c2.2-0.9,4.7-0.8,7.3,0.2l0.5,0.2c1.8,0.7,3.2,1.7,4.3,2.9
			c1.1,1.2,1.8,2.6,2.1,4.2c0.3,1.5,0.1,3.1-0.5,4.6c-1,2.4-2.5,4-4.6,4.6c-2.1,0.7-4.5,0.5-7.3-0.7l-1.6-0.7l4.7-11.6
			c-1.5-0.5-2.9-0.5-4.1,0.1c-1.2,0.5-2.1,1.4-2.6,2.7c-0.7,1.8-0.6,3.6,0.4,5.3l-2.9,1.3c-0.8-1.1-1.2-2.4-1.3-3.8
			C1177.5,540.1,1177.8,538.7,1178.4,537.2z M1193.7,542.9c0.4-1.1,0.4-2.1-0.1-3.1c-0.5-1-1.4-1.8-2.7-2.6l-3.1,7.6l0.3,0.1
			c1.4,0.5,2.5,0.5,3.5,0.2C1192.6,544.7,1193.3,544,1193.7,542.9z"/>
	</g>
	<g>
		<path class="st3" d="M953.6,625.8l-0.6,1.9c1.8-1,3.8-1.1,6-0.3c2.4,0.9,3.7,2.4,3.9,4.5c2-1.4,4.1-1.6,6.5-0.8
			c2,0.7,3.3,1.8,3.8,3.2c0.6,1.4,0.5,3.2-0.3,5.4l-4.3,11.8l-4-1.5l4.2-11.7c0.4-1.1,0.5-2.1,0.2-2.8c-0.3-0.7-1-1.3-2.2-1.7
			c-0.9-0.3-1.8-0.4-2.5-0.1c-0.8,0.3-1.4,0.8-1.9,1.5l-4.4,12.3l-4-1.5l4.3-11.8c0.7-2.1,0-3.6-2.1-4.3c-1.6-0.6-3-0.3-4.2,0.7
			l-4.7,13l-4-1.5l6.5-18L953.6,625.8z"/>
		<path class="st3" d="M976.4,643.4c0.4-1.8,1.1-3.4,2.1-4.7c1-1.3,2.3-2.2,3.8-2.7c1.5-0.5,3.1-0.6,4.8-0.2
			c2.5,0.5,4.4,1.8,5.6,3.7c1.2,2,1.6,4.3,1.2,7l-0.2,1c-0.4,1.8-1.1,3.4-2.1,4.7c-1,1.3-2.3,2.2-3.8,2.7c-1.5,0.5-3.1,0.6-4.8,0.2
			c-2.6-0.6-4.6-1.9-5.8-4c-1.2-2.1-1.5-4.6-0.9-7.5L976.4,643.4z M980.6,644.6c-0.4,1.9-0.3,3.5,0.2,4.8c0.6,1.3,1.6,2,3,2.3
			c1.4,0.3,2.6,0,3.7-1c1-0.9,1.8-2.5,2.2-4.6c0.4-1.9,0.3-3.5-0.3-4.8c-0.6-1.3-1.6-2.1-3-2.4c-1.4-0.3-2.6,0-3.6,0.9
			C981.8,640.9,981,642.5,980.6,644.6z"/>
		<path class="st3" d="M1003,638.8l-0.1,2.2c1.6-1.6,3.5-2.2,5.8-2c4,0.4,5.7,2.9,5.3,7.4l-1.3,12.6l-4.3-0.4l1.3-12.3
			c0.1-1.2,0-2.1-0.5-2.8c-0.5-0.6-1.3-1-2.5-1.1c-1.7-0.2-3.1,0.5-4.1,1.9l-1.4,13.5l-4.3-0.4l2-19L1003,638.8z"/>
		<path class="st3" d="M1022.9,659.2l-4.3-0.1l0.5-19.1l4.3,0.1L1022.9,659.2z M1018.9,635.1c0-0.7,0.2-1.2,0.7-1.6
			c0.4-0.4,1-0.6,1.8-0.6c0.8,0,1.4,0.3,1.8,0.7c0.4,0.4,0.6,1,0.6,1.7c0,0.6-0.2,1.2-0.7,1.6c-0.4,0.4-1,0.6-1.8,0.6
			c-0.8,0-1.4-0.2-1.8-0.7C1019.1,636.3,1018.9,635.7,1018.9,635.1z"/>
		<path class="st3" d="M1033,635.4l0.1,4.6l3.4-0.1l0.1,3.2l-3.4,0.1l0.3,10.7c0,0.7,0.2,1.3,0.5,1.6c0.3,0.3,0.8,0.5,1.6,0.4
			c0.5,0,1-0.1,1.5-0.2l0.1,3.3c-1,0.3-1.9,0.5-2.8,0.5c-3.3,0.1-5-1.7-5.1-5.3l-0.3-10.8l-3.1,0.1l-0.1-3.2l3.1-0.1l-0.1-4.6
			L1033,635.4z"/>
		<path class="st3" d="M1039.3,649.3c-0.2-1.9,0-3.6,0.5-5.2c0.6-1.6,1.5-2.8,2.7-3.8c1.2-1,2.7-1.5,4.5-1.7
			c2.6-0.3,4.7,0.3,6.5,1.8c1.8,1.5,2.9,3.6,3.3,6.3l0.1,1c0.2,1.9,0,3.6-0.5,5.1c-0.6,1.6-1.4,2.8-2.7,3.8c-1.2,1-2.7,1.5-4.5,1.7
			c-2.7,0.3-4.9-0.3-6.7-1.9c-1.8-1.6-2.9-3.9-3.2-6.9L1039.3,649.3z M1043.6,649.1c0.2,2,0.8,3.4,1.7,4.5c0.9,1,2.1,1.4,3.6,1.3
			c1.4-0.2,2.5-0.9,3.2-2.1c0.7-1.2,0.9-2.9,0.6-5.1c-0.2-1.9-0.8-3.4-1.8-4.4c-1-1-2.1-1.5-3.6-1.3c-1.4,0.2-2.4,0.8-3.1,2
			C1043.6,645.2,1043.4,646.9,1043.6,649.1z"/>
		<path class="st3" d="M1069.7,639c-0.6,0-1.2,0.1-1.7,0.2c-1.9,0.4-3.1,1.4-3.4,3l2.6,12.8l-4.2,0.9l-3.8-18.7l4-0.8l0.5,2.1
			c0.7-1.8,1.9-2.9,3.7-3.3c0.6-0.1,1.1-0.1,1.5-0.1L1069.7,639z"/>
	</g>
	<g>
		<path class="st4" d="M532.3,628.7l-0.8,4.6l3.3,0.6l-0.5,3.1l-3.3-0.6l-1.7,10.5c-0.1,0.7-0.1,1.3,0.2,1.6
			c0.2,0.4,0.7,0.6,1.4,0.7c0.5,0.1,1,0.1,1.5,0.1l-0.5,3.3c-1,0.1-2,0.1-2.9-0.1c-3.3-0.5-4.6-2.6-4-6.2l1.8-10.7l-3.1-0.5l0.5-3.1
			l3.1,0.5l0.8-4.6L532.3,628.7z"/>
		<path class="st4" d="M544.8,654.3c-2.7-0.2-4.8-1.2-6.4-3c-1.6-1.8-2.2-4.2-2-7l0-0.5c0.1-1.9,0.6-3.6,1.5-5
			c0.8-1.4,2-2.5,3.3-3.3c1.4-0.7,2.9-1,4.5-0.9c2.6,0.2,4.5,1.2,5.8,2.9c1.3,1.8,1.8,4.2,1.6,7.2l-0.1,1.7l-12.5-0.9
			c0,1.6,0.4,2.9,1.3,3.8c0.9,1,2,1.5,3.4,1.6c2,0.1,3.6-0.5,5-2l2.1,2.4c-0.8,1.1-1.9,1.9-3.3,2.4
			C547.8,654.2,546.4,654.5,544.8,654.3z M545.5,638c-1.2-0.1-2.2,0.3-2.9,1c-0.8,0.8-1.3,1.9-1.6,3.3l8.2,0.6l0-0.3
			c0-1.4-0.3-2.6-0.9-3.3C547.5,638.5,546.6,638.1,545.5,638z"/>
		<path class="st4" d="M568,648.9c0-0.8-0.4-1.3-1-1.7c-0.6-0.4-1.7-0.7-3.2-0.9c-1.5-0.2-2.7-0.6-3.7-1c-2.2-1-3.3-2.4-3.4-4.4
			c-0.1-1.6,0.6-3.1,1.9-4.2c1.3-1.2,3.1-1.8,5.2-1.9c2.3-0.1,4.1,0.4,5.6,1.5c1.4,1.1,2.2,2.5,2.3,4.3l-4.3,0.2c0-0.8-0.4-1.5-1-2
			c-0.6-0.5-1.5-0.8-2.5-0.7c-0.9,0-1.7,0.3-2.3,0.7c-0.6,0.5-0.9,1.1-0.8,1.8c0,0.7,0.3,1.2,0.9,1.5c0.6,0.3,1.7,0.7,3.4,1
			c1.7,0.3,3,0.7,4,1.2c1,0.5,1.7,1.1,2.2,1.8c0.5,0.7,0.8,1.6,0.8,2.6c0.1,1.7-0.6,3.1-2,4.3c-1.4,1.1-3.2,1.7-5.5,1.8
			c-1.6,0.1-3-0.2-4.2-0.7c-1.2-0.5-2.2-1.3-3-2.2c-0.7-1-1.1-2-1.1-3.2l4.2-0.2c0.1,1,0.5,1.8,1.2,2.3c0.7,0.5,1.7,0.8,2.8,0.7
			c1.1,0,2-0.3,2.6-0.7C567.8,650.2,568.1,649.6,568,648.9z"/>
		<path class="st4" d="M579.8,629.1l0.6,4.6l3.3-0.4l0.4,3.2l-3.3,0.4l1.4,10.6c0.1,0.7,0.3,1.2,0.6,1.5c0.3,0.3,0.9,0.4,1.6,0.3
			c0.5-0.1,1-0.2,1.5-0.4l0.4,3.3c-0.9,0.4-1.9,0.6-2.8,0.8c-3.3,0.4-5.1-1.2-5.6-4.8l-1.4-10.7l-3.1,0.4l-0.4-3.2l3.1-0.4l-0.6-4.6
			L579.8,629.1z"/>
	</g>
	<g>
		<path class="st3" d="M743.9,515.6c-0.4,0.4-0.9,0.8-1.2,1.2c-1.3,1.5-1.6,3-0.9,4.5l9.9,8.5l-2.8,3.3l-14.5-12.4l2.7-3.1l1.7,1.3
			c-0.6-1.9-0.3-3.5,0.9-4.9c0.4-0.5,0.8-0.8,1.2-1L743.9,515.6z"/>
		<path class="st3" d="M762.7,517.5c-1.8,2.1-3.9,3.2-6.3,3.4c-2.4,0.2-4.7-0.7-6.8-2.5l-0.4-0.3c-1.4-1.2-2.5-2.6-3.2-4.2
			c-0.7-1.5-0.9-3.1-0.7-4.6c0.2-1.6,0.9-3,1.9-4.2c1.7-2,3.6-3,5.8-3c2.2,0,4.4,1,6.7,3l1.3,1.1l-8.1,9.5c1.3,0.9,2.6,1.3,3.9,1.2
			c1.3-0.1,2.4-0.7,3.3-1.8c1.3-1.5,1.7-3.2,1.3-5.2l3.2-0.3c0.4,1.3,0.4,2.7,0,4.1C764.5,515,763.8,516.3,762.7,517.5z M750,507.2
			c-0.8,0.9-1.1,1.9-0.9,3c0.2,1.1,0.7,2.2,1.7,3.3l5.3-6.2l-0.2-0.2c-1.2-0.9-2.2-1.3-3.2-1.2C751.6,505.9,750.7,506.3,750,507.2z"
			/>
		<path class="st3" d="M772.6,505.4l-2.8,3.3l-20.6-17.6l2.8-3.3L772.6,505.4z"/>
		<path class="st3" d="M781.4,495.7c-1.8,2.1-3.9,3.2-6.3,3.4c-2.4,0.2-4.7-0.7-6.8-2.5l-0.4-0.3c-1.4-1.2-2.5-2.6-3.2-4.2
			c-0.7-1.5-0.9-3.1-0.7-4.6c0.2-1.6,0.9-3,1.9-4.2c1.7-2,3.6-3,5.8-3c2.2,0,4.4,1,6.7,3l1.3,1.1l-8.1,9.5c1.3,0.9,2.6,1.3,3.9,1.2
			c1.3-0.1,2.4-0.7,3.3-1.8c1.3-1.5,1.7-3.2,1.3-5.2l3.2-0.3c0.4,1.3,0.4,2.7,0,4.1C783.1,493.2,782.4,494.5,781.4,495.7z
			 M768.6,485.5c-0.8,0.9-1.1,1.9-0.9,3c0.2,1.1,0.7,2.2,1.7,3.3l5.3-6.2l-0.2-0.2c-1.2-0.9-2.2-1.3-3.2-1.2
			C770.2,484.1,769.4,484.6,768.6,485.5z"/>
		<path class="st3" d="M795.7,478.5c-0.4-0.1-1-0.4-1.7-0.8c0.2,2-0.3,3.7-1.6,5.2c-1.2,1.5-2.7,2.3-4.3,2.5s-3-0.2-4.3-1.3
			c-1.5-1.3-2.2-2.9-2.1-4.8c0.2-1.9,1.1-3.9,3-6l1.7-2l-1-0.8c-0.8-0.6-1.5-0.9-2.3-0.9c-0.8,0-1.6,0.5-2.3,1.3
			c-0.6,0.7-1,1.5-1,2.3c0,0.8,0.2,1.4,0.8,1.9l-2.8,3.3c-0.8-0.7-1.3-1.6-1.6-2.7c-0.2-1.1-0.2-2.3,0.2-3.5c0.4-1.2,1.1-2.4,2-3.5
			c1.5-1.7,3-2.7,4.8-3c1.7-0.3,3.4,0.2,4.9,1.5l6.6,5.6c1.3,1.1,2.5,1.8,3.6,2.1l0.2,0.2L795.7,478.5z M790.2,480
			c0.6-0.6,0.9-1.4,1.1-2.2c0.2-0.8,0.1-1.6-0.2-2.4l-2.7-2.3l-1.5,1.8c-1,1.2-1.6,2.3-1.7,3.3c-0.1,1,0.2,1.8,1,2.4
			c0.6,0.5,1.3,0.8,2,0.7C789,481.1,789.6,480.7,790.2,480z"/>
		<path class="st3" d="M804,460.7c-0.6-0.5-1.2-0.6-1.9-0.4c-0.7,0.2-1.7,0.8-2.8,1.7c-1.2,0.9-2.3,1.6-3.3,2c-2.2,1-4,0.8-5.5-0.5
			c-1.3-1.1-1.8-2.5-1.8-4.3c0.1-1.8,0.8-3.5,2.2-5.1c1.5-1.7,3.1-2.8,4.9-3.1c1.8-0.3,3.3,0.1,4.7,1.3l-2.8,3.3
			c-0.6-0.5-1.3-0.7-2.2-0.6c-0.8,0.1-1.6,0.5-2.2,1.3c-0.6,0.7-0.9,1.4-1,2.2c-0.1,0.7,0.2,1.3,0.8,1.8c0.5,0.4,1.1,0.6,1.7,0.4
			c0.6-0.2,1.6-0.8,3-1.8c1.4-1,2.6-1.8,3.6-2.2c1-0.4,1.9-0.5,2.8-0.4c0.8,0.1,1.7,0.5,2.4,1.2c1.3,1.1,1.9,2.6,1.8,4.3
			c-0.1,1.8-0.9,3.5-2.4,5.3c-1,1.2-2.1,2.1-3.4,2.6c-1.2,0.6-2.4,0.8-3.6,0.7c-1.2-0.1-2.2-0.6-3.1-1.3l2.7-3.2
			c0.8,0.6,1.6,0.8,2.5,0.6s1.7-0.7,2.4-1.6c0.7-0.9,1.1-1.7,1.2-2.4C804.7,461.8,804.5,461.2,804,460.7z"/>
		<path class="st3" d="M818.8,451.9c-1.8,2.1-3.9,3.2-6.3,3.4c-2.4,0.2-4.7-0.7-6.8-2.5l-0.4-0.3c-1.4-1.2-2.5-2.6-3.2-4.2
			c-0.7-1.5-0.9-3.1-0.6-4.6c0.2-1.6,0.9-3,1.9-4.2c1.7-2,3.6-3,5.8-3c2.2,0,4.4,1,6.7,3l1.3,1.1l-8.1,9.5c1.3,0.9,2.6,1.3,3.9,1.2
			c1.3-0.1,2.4-0.7,3.3-1.8c1.3-1.5,1.7-3.2,1.3-5.2l3.2-0.3c0.4,1.3,0.4,2.7,0,4.1C820.5,449.4,819.9,450.7,818.8,451.9z
			 M806,441.7c-0.8,0.9-1.1,1.9-0.9,3c0.2,1.1,0.7,2.2,1.7,3.3l5.3-6.2l-0.2-0.2c-1.2-0.9-2.2-1.3-3.2-1.2
			C807.7,440.3,806.8,440.7,806,441.7z"/>
	</g>
	<g>
		<path class="st4" d="M392.9,503c2.9-0.6,5.4-0.4,7.3,0.6c2,1,3.2,2.6,3.6,4.9c0.4,2.2,0,4.1-1.4,5.6l2.1-0.2l0.8,3.8l-26.6,5.3
			l-0.8-4.2l9.7-1.9c-1.7-0.9-2.7-2.4-3.1-4.5c-0.5-2.3,0-4.3,1.5-5.9c1.4-1.6,3.7-2.8,6.7-3.4L392.9,503z M393.3,507.3
			c-2,0.4-3.5,1.1-4.4,2c-0.9,0.9-1.2,2.1-0.9,3.4c0.4,1.8,1.4,3,3.2,3.4l7.7-1.5c1.5-1.1,2-2.5,1.7-4.4c-0.3-1.3-1-2.2-2.1-2.8
			c-1.1-0.5-2.7-0.6-4.7-0.2L393.3,507.3z"/>
		<path class="st4" d="M399,486.9c1.6,1.2,2.4,2.9,2.6,5.2c0.1,2.1-0.3,3.7-1.5,4.8c-1.1,1.1-2.8,1.8-5.1,2l-12.4,0.9l-0.3-4.3
			l12.3-0.9c2.4-0.2,3.6-1.3,3.4-3.3c-0.1-2.1-1-3.4-2.5-4.1l-13.7,1l-0.3-4.3l19.1-1.4l0.3,4L399,486.9z"/>
		<path class="st4" d="M376.7,478.4c-0.7,0-1.2-0.2-1.6-0.7c-0.4-0.4-0.6-1-0.6-1.8c0-0.8,0.2-1.4,0.7-1.8c0.4-0.4,1-0.6,1.7-0.6
			c0.6,0,1.2,0.2,1.6,0.7c0.4,0.4,0.6,1,0.6,1.8c0,0.8-0.2,1.4-0.7,1.8C377.9,478.2,377.3,478.4,376.7,478.4z M400.8,474.3l-0.1,4.3
			l-19.1-0.4l0.1-4.3L400.8,474.3z"/>
		<path class="st4" d="M401.4,465.4l-0.3,4.3l-27.1-2l0.3-4.3L401.4,465.4z"/>
		<path class="st4" d="M391.9,460.5c-2.9-0.5-5.1-1.6-6.7-3.2c-1.5-1.6-2.1-3.6-1.7-5.9c0.3-2,1.3-3.5,2.9-4.5l-9.7-1.6l0.7-4.2
			l26.8,4.5l-0.6,3.8l-2-0.1c1.3,1.5,1.8,3.3,1.4,5.5c-0.4,2.2-1.6,3.8-3.6,4.9C397.5,460.7,395,461,391.9,460.5z M393,456.3
			c1.9,0.3,3.5,0.2,4.7-0.4c1.2-0.6,1.9-1.5,2.1-2.9c0.3-1.7-0.3-3.1-1.7-4.2l-8-1.3c-1.6,0.5-2.6,1.7-2.9,3.4
			c-0.2,1.4,0.1,2.5,1.1,3.4C389.2,455.3,390.8,455.9,393,456.3z"/>
		<path class="st4" d="M519.3,320.4c1-0.3,1.8-0.9,2.3-1.6c0.5-0.8,0.6-1.6,0.4-2.5l3.9-1.1c0.3,1.2,0.2,2.3-0.1,3.5
			c-0.4,1.2-1.1,2.2-2,3.1c-1,0.9-2.1,1.6-3.4,1.9c-2.6,0.8-4.8,0.5-6.8-0.7c-2-1.2-3.4-3.3-4.3-6.2l-0.1-0.4
			c-0.8-2.8-0.7-5.2,0.3-7.4c1-2.1,2.8-3.6,5.4-4.3c2.2-0.6,4.1-0.5,5.9,0.3c1.7,0.9,3,2.3,3.6,4.4l-3.9,1.1c-0.4-1-1-1.8-1.8-2.3
			c-0.9-0.5-1.8-0.6-2.9-0.3c-1.3,0.4-2.2,1.2-2.7,2.4c-0.4,1.2-0.4,2.8,0.2,4.7l0.2,0.7c0.6,2,1.4,3.4,2.4,4.1
			C516.8,320.6,518,320.8,519.3,320.4z"/>
		<path class="st4" d="M527.8,311.2c-0.3-1.8-0.2-3.6,0.2-5.2c0.5-1.6,1.3-2.9,2.5-3.9c1.2-1,2.6-1.7,4.4-2c2.5-0.4,4.7,0,6.6,1.4
			c1.9,1.4,3.1,3.4,3.7,6.1l0.2,1c0.3,1.9,0.2,3.6-0.2,5.2c-0.5,1.6-1.3,2.9-2.5,3.9c-1.2,1-2.7,1.7-4.4,2c-2.7,0.5-4.9-0.1-6.8-1.6
			c-1.9-1.5-3.1-3.7-3.6-6.7L527.8,311.2z M532,310.8c0.3,1.9,1,3.4,2,4.3c1,1,2.2,1.3,3.6,1.1c1.4-0.2,2.4-1,3-2.2
			c0.6-1.3,0.7-2.9,0.4-5.1c-0.3-1.9-1-3.3-2-4.3c-1-1-2.2-1.3-3.6-1.1c-1.4,0.2-2.4,1-3,2.2C531.8,306.9,531.7,308.6,532,310.8z"/>
		<path class="st4" d="M548.5,307.8c-0.1-2.9,0.4-5.3,1.7-7.2c1.3-1.9,3.1-2.8,5.4-2.9c2-0.1,3.7,0.5,5,1.9l-0.5-9.8l4.3-0.2
			l1.4,27.1l-3.9,0.2l-0.3-2c-1.2,1.6-2.9,2.5-5,2.6c-2.2,0.1-4.1-0.7-5.6-2.4C549.5,313.3,548.7,310.9,548.5,307.8z M552.8,308
			c0.1,1.9,0.5,3.4,1.3,4.5c0.8,1.1,1.9,1.5,3.3,1.5c1.8-0.1,3-0.9,3.7-2.5l-0.4-8.2c-0.9-1.5-2.2-2.2-3.9-2.1
			c-1.4,0.1-2.4,0.7-3.1,1.8C553,304.1,552.7,305.8,552.8,308z"/>
		<path class="st4" d="M577.9,317.6c-2.7-0.2-4.9-1.2-6.4-3c-1.6-1.8-2.3-4.2-2.1-7l0-0.5c0.1-1.9,0.6-3.6,1.4-5
			c0.8-1.5,1.9-2.5,3.3-3.3c1.4-0.7,2.9-1.1,4.5-1c2.6,0.2,4.5,1.1,5.9,2.9c1.3,1.8,1.9,4.1,1.7,7.2l-0.1,1.7l-12.5-0.8
			c0,1.6,0.5,2.9,1.3,3.8c0.9,1,2,1.5,3.4,1.6c2,0.1,3.6-0.6,5-2.1l2.2,2.4c-0.8,1.1-1.9,1.9-3.2,2.4
			C580.9,317.5,579.5,317.8,577.9,317.6z M578.5,301.3c-1.2-0.1-2.2,0.3-2.9,1c-0.8,0.8-1.3,1.9-1.6,3.3l8.2,0.5l0-0.3
			c0-1.4-0.3-2.5-0.9-3.3C580.5,301.8,579.6,301.4,578.5,301.3z"/>
	</g>
</g>
<g>
	<path class="st3" d="M761.1,246.4c0-2.2-0.8-4-2.4-5.2c-1.6-1.2-4.4-2.5-8.6-3.8c-4.1-1.3-7.4-2.7-9.8-3.9
		c-6.6-3.5-9.8-8.3-9.8-14.3c0-3.1,0.9-5.9,2.6-8.4c1.8-2.4,4.3-4.4,7.6-5.7c3.3-1.4,7-2.1,11.1-2.1c4.1,0,7.8,0.7,11,2.2
		c3.2,1.5,5.7,3.6,7.5,6.3c1.8,2.7,2.7,5.8,2.7,9.3h-11.9c0-2.6-0.8-4.7-2.5-6.2c-1.7-1.5-4-2.2-7-2.2c-2.9,0-5.2,0.6-6.8,1.8
		c-1.6,1.2-2.4,2.9-2.4,4.9c0,1.9,0.9,3.5,2.8,4.7c1.9,1.3,4.7,2.5,8.4,3.6c6.8,2,11.7,4.6,14.8,7.6c3.1,3,4.6,6.8,4.6,11.3
		c0,5-1.9,8.9-5.7,11.8c-3.8,2.8-8.9,4.3-15.3,4.3c-4.4,0-8.5-0.8-12.1-2.4c-3.7-1.6-6.4-3.9-8.4-6.7c-1.9-2.8-2.9-6.1-2.9-9.8h11.9
		c0,6.4,3.8,9.6,11.4,9.6c2.8,0,5-0.6,6.6-1.7C760.3,250.1,761.1,248.5,761.1,246.4z"/>
	<path class="st3" d="M800.1,262.4c-6.3,0-11.4-1.9-15.4-5.8c-4-3.9-5.9-9-5.9-15.4V240c0-4.3,0.8-8.2,2.5-11.6c1.7-3.4,4-6,7.1-7.9
		c3.1-1.8,6.5-2.8,10.5-2.8c5.9,0,10.5,1.9,13.9,5.6c3.4,3.7,5.1,9,5.1,15.8v4.7h-27.3c0.4,2.8,1.5,5.1,3.4,6.7
		c1.9,1.7,4.2,2.5,7.1,2.5c4.4,0,7.9-1.6,10.4-4.8l5.6,6.3c-1.7,2.4-4,4.3-7,5.7S803.7,262.4,800.1,262.4z M798.8,227.1
		c-2.3,0-4.1,0.8-5.5,2.3c-1.4,1.5-2.3,3.7-2.7,6.6h16v-0.9c-0.1-2.6-0.7-4.5-2.1-5.9S801.2,227.1,798.8,227.1z"/>
	<path class="st3" d="M842.1,253.1c2.1,0,3.8-0.6,5.2-1.7c1.3-1.2,2-2.7,2.1-4.6h10.8c0,2.9-0.8,5.6-2.4,8c-1.6,2.4-3.7,4.3-6.4,5.6
		c-2.7,1.3-5.7,2-9,2c-6.1,0-11-2-14.5-5.9c-3.5-3.9-5.3-9.3-5.3-16.2v-0.8c0-6.6,1.8-11.9,5.3-15.8c3.5-3.9,8.3-5.9,14.5-5.9
		c5.4,0,9.7,1.5,12.9,4.6c3.2,3.1,4.9,7.1,4.9,12.2h-10.8c-0.1-2.2-0.7-4-2.1-5.4c-1.3-1.4-3.1-2.1-5.2-2.1c-2.7,0-4.7,1-6.1,2.9
		c-1.4,1.9-2,5.1-2,9.5v1.2c0,4.4,0.7,7.6,2,9.5C837.3,252.2,839.4,253.1,842.1,253.1z"/>
</g>
</svg>
